<svg xmlns="http://www.w3.org/2000/svg" xmlns:xlink="http://www.w3.org/1999/xlink" width="238.932" height="37.996" viewBox="0 0 238.932 37.996">
    <defs>
        <linearGradient id="linear-gradient" x1="0.5" y1="-0.361" x2="0.5" y2="0.785" gradientUnits="objectBoundingBox">
            <stop offset="0" stop-color="#196bd7"/>
            <stop offset="1" stop-color="#1237a1"/>
        </linearGradient>
        <linearGradient id="linear-gradient-2" x1="0.16" y1="1.369" x2="0.566" y2="0.195" gradientUnits="objectBoundingBox">
            <stop offset="0" stop-color="#2d8dda"/>
            <stop offset="1" stop-color="#1563b8"/>
        </linearGradient>
        <linearGradient id="linear-gradient-3" x1="0.5" y1="-0.227" x2="0.5" y2="0.866" gradientUnits="objectBoundingBox">
            <stop offset="0" stop-color="#2d8dda"/>
            <stop offset="1" stop-color="#1949af"/>
        </linearGradient>
        <linearGradient id="linear-gradient-4" x1="1.093" y1="-0.403" x2="-0.086" y2="0.926" gradientUnits="objectBoundingBox">
            <stop offset="0" stop-color="#6fd0f0"/>
            <stop offset="1" stop-color="#48aeec"/>
        </linearGradient>
        <linearGradient id="linear-gradient-5" y1="0.5" x2="1" y2="0.5" gradientUnits="objectBoundingBox">
            <stop offset="0" stop-color="#0a368f"/>
            <stop offset="1" stop-color="#0d2676"/>
        </linearGradient>
        <linearGradient id="linear-gradient-6" x1="0.096" y1="-0.261" x2="0.73" y2="1.123" xlink:href="#linear-gradient-5"/>
        <linearGradient id="linear-gradient-7" x1="0.911" y1="-0.4" x2="0.46" y2="0.716" xlink:href="#linear-gradient-2"/>
        <linearGradient id="linear-gradient-8" y1="0.499" x2="1" y2="0.499" gradientUnits="objectBoundingBox">
            <stop offset="0" stop-color="#01a2e8"/>
            <stop offset="1" stop-color="#02095a"/>
        </linearGradient>
    </defs>
    <g id="Logo_Control_One" data-name="Logo Control One" transform="translate(-39.968 -25.607)">
        <g id="Text" transform="translate(-6)">
            <g id="One">
                <path id="Path_7" data-name="Path 7" d="M232.04,57.14a11.843,11.843,0,0,1-6.19-1.57,10.72,10.72,0,0,1-4.11-4.4,14.157,14.157,0,0,1-1.47-6.61,14.27,14.27,0,0,1,1.47-6.63,10.773,10.773,0,0,1,4.11-4.42,12.948,12.948,0,0,1,12.36,0,10.793,10.793,0,0,1,4.09,4.42,14.27,14.27,0,0,1,1.47,6.63,14.128,14.128,0,0,1-1.47,6.61,10.8,10.8,0,0,1-4.09,4.4,11.77,11.77,0,0,1-6.17,1.57Zm0-3.75a6.378,6.378,0,0,0,3.72-1.11,7.249,7.249,0,0,0,2.49-3.09,11.264,11.264,0,0,0,.89-4.64,11.345,11.345,0,0,0-.89-4.65,7.219,7.219,0,0,0-2.49-3.1,6.805,6.805,0,0,0-7.45,0,7.254,7.254,0,0,0-2.47,3.1,11.379,11.379,0,0,0-.89,4.65,11.3,11.3,0,0,0,.89,4.64,7.359,7.359,0,0,0,2.47,3.09A6.344,6.344,0,0,0,232.04,53.39Z" fill="#01a2e8"/>
                <path id="Path_8" data-name="Path 8" d="M259.69,56.56V45.41a4,4,0,0,0-.94-2.93,3.3,3.3,0,0,0-2.47-.95,3.684,3.684,0,0,0-2.83,1.14,4.433,4.433,0,0,0-1.06,3.12V56.56h-4.23V38.49h3.89v2.97h.14a5.533,5.533,0,0,1,2.13-2.49,6.25,6.25,0,0,1,3.39-.89,7.039,7.039,0,0,1,3.27.73,5.089,5.089,0,0,1,2.17,2.23,8.373,8.373,0,0,1,.77,3.82v11.7Z" fill="#01a2e8"/>
                <path id="Path_9" data-name="Path 9" d="M276.74,56.97a9.226,9.226,0,0,1-4.77-1.19,7.933,7.933,0,0,1-3.1-3.38,11.108,11.108,0,0,1-1.09-5.05,9.706,9.706,0,0,1,1.14-4.84,8.415,8.415,0,0,1,3.14-3.26,8.593,8.593,0,0,1,4.48-1.18,9.307,9.307,0,0,1,4.47,1.04,7.021,7.021,0,0,1,2.88,2.98,9.838,9.838,0,0,1,1.01,4.57c0,.32,0,.65-.02.99s-.03.61-.05.82h-14.9V45.71h12.1l-1.19.44a6.588,6.588,0,0,0-.48-2.81,3.642,3.642,0,0,0-1.48-1.72,4.526,4.526,0,0,0-2.37-.58,4.593,4.593,0,0,0-2.32.58,4.056,4.056,0,0,0-1.62,1.79,6.972,6.972,0,0,0-.6,3.09v1.53a6.323,6.323,0,0,0,1.26,4.11,4.529,4.529,0,0,0,3.75,1.55,5.379,5.379,0,0,0,2.54-.6,4.621,4.621,0,0,0,1.86-1.86l3.14,1.84a6.429,6.429,0,0,1-1.74,2.13,7.453,7.453,0,0,1-2.61,1.31,12.409,12.409,0,0,1-3.43.44Z" fill="#01a2e8"/>
            </g>
            <g id="Control">
                <path id="Path_1" data-name="Path 1" d="M112.65,52.28a6.132,6.132,0,0,1-3.77,1.11,5.846,5.846,0,0,1-3.53-1.08,6.8,6.8,0,0,1-2.28-3.06,12.614,12.614,0,0,1-.8-4.71,13.059,13.059,0,0,1,.78-4.75,6.5,6.5,0,0,1,2.29-3.04,5.9,5.9,0,0,1,3.51-1.06,5.784,5.784,0,0,1,6,4.34l4.16-1.4a9.956,9.956,0,0,0-2.1-3.69,8.661,8.661,0,0,0-3.38-2.25,13.089,13.089,0,0,0-4.62-.75,11.6,11.6,0,0,0-4.64.89,10.058,10.058,0,0,0-3.58,2.56,11.433,11.433,0,0,0-2.3,3.98,15.8,15.8,0,0,0-.8,5.17,14.542,14.542,0,0,0,1.43,6.62,10.581,10.581,0,0,0,3.99,4.4,11,11,0,0,0,5.9,1.57,12.654,12.654,0,0,0,4.67-.8,8.866,8.866,0,0,0,3.39-2.36,10.462,10.462,0,0,0,2.1-3.84l-4.23-1.23a6.581,6.581,0,0,1-2.2,3.37Z" fill="#0e2470"/>
                <path id="Path_2" data-name="Path 2" d="M135.78,39.26a9.364,9.364,0,0,0-4.74-1.18,9.177,9.177,0,0,0-4.71,1.18,8.4,8.4,0,0,0-3.21,3.29,10.236,10.236,0,0,0-1.16,4.98,10.236,10.236,0,0,0,1.16,4.98,8.263,8.263,0,0,0,3.21,3.29,10.05,10.05,0,0,0,9.45,0,8.215,8.215,0,0,0,3.19-3.29,10.345,10.345,0,0,0,1.14-4.98,10.345,10.345,0,0,0-1.14-4.98A8.151,8.151,0,0,0,135.78,39.26Zm-.64,11.75a4.549,4.549,0,0,1-1.67,2.03,4.49,4.49,0,0,1-2.42.67,4.337,4.337,0,0,1-2.4-.67,4.52,4.52,0,0,1-1.69-2.03,8.409,8.409,0,0,1-.61-3.44,8.944,8.944,0,0,1,.61-3.51,4.415,4.415,0,0,1,8.18,0,8.6,8.6,0,0,1,.61,3.51A8.217,8.217,0,0,1,135.14,51.01Z" fill="#0e2470"/>
                <path id="Path_3" data-name="Path 3" d="M156.96,38.82a6.918,6.918,0,0,0-3.27-.73,6.25,6.25,0,0,0-3.39.89,5.533,5.533,0,0,0-2.13,2.49h-.14V38.5h-3.89V56.57h4.23V45.8a4.387,4.387,0,0,1,1.06-3.12,3.684,3.684,0,0,1,2.83-1.14,3.323,3.323,0,0,1,2.47.95,4.059,4.059,0,0,1,.94,2.93V56.57h4.23V44.87a8.4,8.4,0,0,0-.77-3.82,4.985,4.985,0,0,0-2.17-2.23Z" fill="#0e2470"/>
                <path id="Path_4" data-name="Path 4" d="M170.42,32.66l-4.23,2.05v3.78h-3.1v3.04h3.1V51.85a5.186,5.186,0,0,0,1.31,3.85,5.24,5.24,0,0,0,3.84,1.28,7.7,7.7,0,0,0,1.38-.12,7.284,7.284,0,0,0,1.35-.39V53.3a6.467,6.467,0,0,1-.87.24,3.9,3.9,0,0,1-.73.07,1.939,1.939,0,0,1-1.52-.58,2.543,2.543,0,0,1-.53-1.75V41.54h3.68V38.5h-3.68V32.67Z" fill="#0e2470"/>
                <path id="Path_5" data-name="Path 5" d="M186.76,38.08a4.713,4.713,0,0,0-2.98.99,5.044,5.044,0,0,0-1.76,2.69h-.14V38.49h-3.89V56.56h4.23V46.33a5.061,5.061,0,0,1,.51-2.37,3.809,3.809,0,0,1,1.43-1.52,4.09,4.09,0,0,1,2.11-.54q.51,0,.9.03a2.893,2.893,0,0,1,.7.14V38.22a2.876,2.876,0,0,0-.51-.1c-.2-.02-.41-.03-.61-.03Z" fill="#0e2470"/>
                <path id="Path_6" data-name="Path 6" d="M203.29,39.26a9.364,9.364,0,0,0-4.74-1.18,9.177,9.177,0,0,0-4.71,1.18,8.4,8.4,0,0,0-3.21,3.29,10.236,10.236,0,0,0-1.16,4.98,10.236,10.236,0,0,0,1.16,4.98,8.263,8.263,0,0,0,3.21,3.29,10.05,10.05,0,0,0,9.45,0,8.215,8.215,0,0,0,3.19-3.29,10.345,10.345,0,0,0,1.14-4.98,10.345,10.345,0,0,0-1.14-4.98A8.151,8.151,0,0,0,203.29,39.26Zm-.64,11.75a4.549,4.549,0,0,1-1.67,2.03,4.49,4.49,0,0,1-2.42.67,4.337,4.337,0,0,1-2.4-.67,4.52,4.52,0,0,1-1.69-2.03,8.409,8.409,0,0,1-.61-3.44,8.944,8.944,0,0,1,.61-3.51,4.415,4.415,0,0,1,8.18,0,8.6,8.6,0,0,1,.61,3.51A8.217,8.217,0,0,1,202.65,51.01Z" fill="#0e2470"/>
                <rect id="Rectangle_1" data-name="Rectangle 1" width="4.23" height="24.04" transform="translate(211.65 32.53)" fill="#0e2470"/>
            </g>
        </g>
        <g id="Group_6" data-name="Group 6" transform="translate(7.768 7.537)">
            <g id="Badge" transform="translate(32.2 18.07)">
                <path id="Background" d="M-414.259-192.769l-6.58-3.8-4.911-2.828,4.911-2.835v-.072l.057.036,11.434,6.644.043.028v-.05l11.384-6.622-11.384,6.622v.05l-.043-.028-11.434-6.644-.057-.036v.072l-4.911,2.835-.05-.028v-19l4.962-2.864,6.6-3.809,4.89-2.828.043.022,4.876,2.813,6.651,3.845,4.89,2.821v.057l-4.89,2.821v0l4.89-2.821v18.944l-.057.028-4.833,2.793-6.659,3.844-4.868,2.814-.043.014Zm4.911-16.1.043.029v0Zm.043-13.36-.021-.014Zm0,0v0Z" transform="translate(425.8 227.93)" fill="#02095a"/>
                <g id="Group_5" data-name="Group 5" transform="translate(0 0)">
                    <path id="Path_23" data-name="Path 23" d="M55.223,44.71v-.05l-.043.021Z" transform="translate(-38.727 -25.623)" fill="#02095a"/>
                    <path id="Path_24" data-name="Path 24" d="M66.746,32.724,55.24,26.03V52.614l11.384-6.623.143-.086V32.739Z" transform="translate(-38.744 -20.331)" fill="url(#linear-gradient)"/>
                    <path id="Path_25" data-name="Path 25" d="M71.331,35.36l-.021.014.021.014Z" transform="translate(-43.309 -22.981)" fill="#e6007e"/>
                    <path id="Path_26" data-name="Path 26" d="M55.231,26l-.021.007.021.014Z" transform="translate(-38.736 -20.322)" fill="#e6007e"/>
                    <path id="Path_27" data-name="Path 27" d="M66.767,24.758l-6.651-3.845L55.24,18.1v5.678l11.506,6.694.021-.014,4.89-2.821v-.057Z" transform="translate(-38.744 -18.079)" fill="url(#linear-gradient-2)"/>
                    <path id="Path_28" data-name="Path 28" d="M50.664,26.024l-.021-.014-11.513,6.7V45.95l.057.036,11.434,6.644.043.029V39.413l-.043-.029.043-.021Z" transform="translate(-34.168 -20.325)" fill="url(#linear-gradient-3)"/>
                    <path id="Path_29" data-name="Path 29" d="M71.283,53.962V53.79l-.143.086Z" transform="translate(-43.26 -28.216)" fill="#ca9e67"/>
                    <path id="Path_30" data-name="Path 30" d="M48.653,18.07,43.763,20.9l-6.6,3.809L32.2,27.571v19l.05.029,4.911-2.835V30.456l11.513-6.7.021-.007V18.091Z" transform="translate(-32.2 -18.07)" fill="url(#linear-gradient-4)"/>
                    <path id="Path_31" data-name="Path 31" d="M71.34,34.241V47.608l4.833,2.785.057-.029V31.42Z" transform="translate(-43.317 -21.862)" fill="url(#linear-gradient-5)"/>
                    <path id="Path_32" data-name="Path 32" d="M66.817,53.71l-.193.143L55.24,60.476v5.7l4.869-2.814,6.658-3.845L71.6,56.724Z" transform="translate(-38.744 -28.193)" fill="url(#linear-gradient-6)"/>
                    <path id="Path_33" data-name="Path 33" d="M48.673,60.54,37.239,53.9l-.057-.036v.072L32.27,56.767l4.911,2.828,6.58,3.8,4.912,2.835.043-.014V60.569Z" transform="translate(-32.22 -28.236)" fill="url(#linear-gradient-7)"/>
                </g>
            </g>
            <g id="Check" transform="translate(38.909 21.099)">
                <path id="CheckOutline" d="M51.5,45.984a.33.33,0,0,1-.236-.093l-9.587-9.064a.356.356,0,0,1-.107-.265.312.312,0,0,1,.129-.251l4.16-3.344a.355.355,0,0,1,.415-.014l5.255,3.766C58.868,28.866,73.4,22.393,73.545,22.329a.341.341,0,0,1,.379.551L51.744,45.891A.332.332,0,0,1,51.5,46Z" transform="translate(-41.57 -22.301)" fill="url(#linear-gradient-8)"/>
                <path id="WhiteCheck" d="M42.04,36.7l9.587,9.064L73.807,22.75S59.008,29.287,51.7,37.284l-5.5-3.938L42.04,36.69Z" transform="translate(-41.703 -22.428)" fill="#fff"/>
            </g>
        </g>
    </g>
</svg>
